<?xml version="1.0" encoding="utf-8"?>
<!-- Generator: Adobe Illustrator 18.1.1, SVG Export Plug-In . SVG Version: 6.00 Build 0)  -->
<svg version="1.1" id="Layer_1" xmlns:sketch="http://www.bohemiancoding.com/sketch/ns"
	 xmlns="http://www.w3.org/2000/svg" xmlns:xlink="http://www.w3.org/1999/xlink" x="0px" y="0px" viewBox="-571 373 46 46"
	 enable-background="new -571 373 46 46" xml:space="preserve">
<g id="logo_googleg_48dp" transform="translate(15.000000, 15.000000)" sketch:type="MSLayerGroup">
	<path id="Shape" sketch:type="MSShapeGroup" fill="#4285F4" d="M-541.4,381.5c0-1.6-0.1-3.1-0.4-4.6H-563v8.7h12.1
		c-0.5,2.8-2.1,5.2-4.5,6.8v5.6h7.3C-543.9,394.1-541.4,388.4-541.4,381.5L-541.4,381.5z"/>
	<path id="Shape_1_" sketch:type="MSShapeGroup" fill="#34A853" d="M-563,403.5c6.1,0,11.2-2,14.9-5.5l-7.3-5.6
		c-2,1.4-4.6,2.1-7.6,2.1c-5.9,0-10.8-4-12.6-9.3h-7.5v5.8C-579.4,398.5-571.8,403.5-563,403.5L-563,403.5z"/>
	<path id="Shape_2_" sketch:type="MSShapeGroup" fill="#FBBC05" d="M-575.6,385.3c-0.5-1.4-0.7-2.8-0.7-4.3s0.3-2.9,0.7-4.3v-5.8
		h-7.5c-1.5,3-2.4,6.5-2.4,10.1s0.9,7.1,2.4,10.1L-575.6,385.3L-575.6,385.3z"/>
	<path id="Shape_3_" sketch:type="MSShapeGroup" fill="#EA4335" d="M-563,367.4c3.3,0,6.3,1.1,8.6,3.4l6.5-6.5
		c-3.9-3.6-9-5.9-15.1-5.9c-8.8,0-16.4,5-20.1,12.4l7.5,5.8C-573.8,371.4-568.9,367.4-563,367.4L-563,367.4z"/>
	<path id="Shape_4_" sketch:type="MSShapeGroup" fill="none" d="M-585.5,358.5h45v45h-45V358.5z"/>
</g>
</svg>
